<svg width="30" height="27" viewBox="0 0 30 27" fill="none" xmlns="http://www.w3.org/2000/svg">
<path d="M1.20087 16.8056V25.1484C1.20087 25.4246 1.42473 25.6484 1.70087 25.6484H6.22838C6.50452 25.6484 6.72838 25.4246 6.72838 25.1484V16.8056C6.72838 16.5294 6.50452 16.3056 6.22838 16.3056H1.70087C1.42473 16.3056 1.20087 16.5294 1.20087 16.8056Z" stroke="#FF8C2A" stroke-width="2"/>
<path d="M11.9677 25.1484V2.14844C11.9677 1.8723 12.1916 1.64844 12.4677 1.64844H17.513C17.7891 1.64844 18.013 1.87229 18.013 2.14844V25.1484C18.013 25.4246 17.7891 25.6484 17.513 25.6484H12.4677C12.1916 25.6484 11.9677 25.4246 11.9677 25.1484Z" stroke="#FF8C2A" stroke-width="2"/>
<path d="M23.0832 25.1484V9.75369C23.0832 9.47755 23.307 9.25369 23.5832 9.25369H28.3034C28.5795 9.25369 28.8034 9.47755 28.8034 9.75369V25.1484C28.8034 25.4246 28.5795 25.6484 28.3034 25.6484H23.5832C23.307 25.6484 23.0832 25.4246 23.0832 25.1484Z" stroke="#FF8C2A" stroke-width="2"/>
</svg>
