<svg width="30" height="27" viewBox="0 0 30 27" fill="none" xmlns="http://www.w3.org/2000/svg">
<path d="M25.6891 9.43013V2.64844C25.6891 2.09615 25.2414 1.64844 24.6891 1.64844H2.86646C2.31417 1.64844 1.86646 2.09615 1.86646 2.64844V20.7714C1.86646 21.3237 2.31417 21.7714 2.86646 21.7714H17.8908" stroke="#FFBA05" stroke-width="2"/>
<path d="M21.8813 9.36112V6.73246C21.8813 6.18017 21.4336 5.73246 20.8813 5.73246H9.71802C9.16573 5.73246 8.71802 6.18017 8.71802 6.73246V17.2103C8.71802 17.7626 9.16573 18.2103 9.71802 18.2103H17.9936" stroke="#FFBA05" stroke-width="2"/>
<path d="M5.08911 10.1914V12.9098" stroke="#FFBA05" stroke-width="2"/>
<path d="M22.1243 21.6885H24.5867" stroke="#FFBA05" stroke-width="2"/>
<path d="M18.5583 11.2129L18.5579 24.6486C18.5579 25.2009 19.0056 25.6486 19.5579 25.6486H27.1316C27.6838 25.6486 28.1316 25.2009 28.1316 24.6486V11.213C28.1316 10.6607 27.6838 10.213 27.1316 10.213L19.5583 10.2129C19.006 10.2129 18.5583 10.6606 18.5583 11.2129Z" stroke="#FFBA05" stroke-width="2"/>
</svg>
