<svg width="30" height="27" viewBox="0 0 30 27" fill="none" xmlns="http://www.w3.org/2000/svg">
<path d="M1.49414 6.6512V2.64746C1.49414 2.09518 1.94186 1.64746 2.49414 1.64746H27.502C28.0542 1.64746 28.502 2.09518 28.502 2.64746V6.6512M1.49414 6.6512V24.6494C1.49414 25.2017 1.94186 25.6494 2.49414 25.6494H9.51039M1.49414 6.6512H9.51039M28.502 6.6512V24.6494C28.502 25.2017 28.0542 25.6494 27.502 25.6494H9.51039M28.502 6.6512H9.51039M9.51039 6.6512V25.6494" stroke="#00C86F" stroke-width="2"/>
<path d="M13.065 11.2812H16.5985M16.9261 14.8179H24.5403M15.137 18.521H21.4197M13.0566 22.3072H16.6349" stroke="#00C86F" stroke-width="2"/>
</svg>
