<svg width="26" height="27" viewBox="0 0 26 27" fill="none" xmlns="http://www.w3.org/2000/svg">
<path d="M9.95229 13.6569C9.95226 11.2098 11.9511 10.3085 13.1463 10.3086C14.3416 10.3087 16.2924 10.8978 16.2924 13.6569C16.2924 16.4161 14.0676 16.9241 13.1463 16.9241C12.0552 16.9241 9.95231 16.104 9.95229 13.6569Z" stroke="#F16165" stroke-width="2"/>
<path d="M10.7495 2.64844V4.96346C10.7495 5.03033 10.7161 5.09279 10.6604 5.12988L9.26445 6.06032C9.18513 6.11319 9.07953 6.10273 9.01212 6.03534L7.17808 4.20177C6.78743 3.81123 6.15412 3.81139 5.76368 4.20214L3.70169 6.26574C3.26625 6.70152 3.32459 7.42359 3.82434 7.7838L5.79993 9.20779C5.87698 9.26333 5.90435 9.36541 5.8654 9.45204L5.17571 10.9863C5.14343 11.0581 5.07202 11.1043 4.99329 11.1043H2.15932C1.60703 11.1043 1.15932 11.5521 1.15932 12.1043V14.8773C1.15932 15.4296 1.60703 15.8773 2.15932 15.8773H4.6133C4.67807 15.8773 4.73883 15.9087 4.77634 15.9615L5.83196 17.4472C5.88955 17.5282 5.87885 17.6393 5.80683 17.7079L3.84681 19.5739C3.43604 19.965 3.43238 20.619 3.83875 21.0146L5.75193 22.8773C6.14852 23.2635 6.78335 23.254 7.16822 22.8562L9.0237 20.9383C9.08553 20.8744 9.18213 20.859 9.26078 20.9005L10.6428 21.6297C10.7084 21.6643 10.7495 21.7324 10.7495 21.8066V24.6484C10.7495 25.2007 11.1972 25.6484 11.7495 25.6484H14.5671C15.1194 25.6484 15.5671 25.2007 15.5671 24.6484V21.8081C15.5671 21.7331 15.609 21.6644 15.6757 21.6302L17.0963 20.9007C17.1769 20.8593 17.2754 20.8773 17.3362 20.9447L18.9996 22.7896C19.3849 23.2169 20.0503 23.2318 20.4543 22.8222L22.3086 20.9421C22.6725 20.5731 22.6942 19.9872 22.3586 19.5923L20.7389 17.6868C20.688 17.6269 20.6769 17.5427 20.7106 17.4717L21.4116 15.9917C21.4447 15.9219 21.515 15.8773 21.5923 15.8773H23.8429C24.3952 15.8773 24.8429 15.4296 24.8429 14.8773V12.1043C24.8429 11.552 24.3952 11.1043 23.8429 11.1043H21.5951C21.5164 11.1043 21.445 11.0582 21.4127 10.9864L20.7131 9.4318C20.6784 9.35469 20.696 9.26409 20.757 9.20551L22.2537 7.76744C22.6428 7.39359 22.6652 6.77845 22.3042 6.37737L20.44 4.30605C20.0474 3.86986 19.3654 3.86389 18.9652 4.29314L17.3475 6.02852C17.2814 6.0995 17.1738 6.11274 17.0924 6.05994L15.6582 5.12964C15.6014 5.09276 15.5671 5.02961 15.5671 4.96185V2.64844C15.5671 2.09615 15.1194 1.64844 14.5671 1.64844H11.7495C11.1972 1.64844 10.7495 2.09615 10.7495 2.64844Z" stroke="#F16165" stroke-width="2"/>
</svg>
